<?xml version="1.0" encoding="UTF-8"?>
<svg width="64" height="64" viewBox="0 0 64 64" fill="none" xmlns="http://www.w3.org/2000/svg" role="img" aria-labelledby="sales-rule-draft-title sales-rule-draft-desc">
  <title id="sales-rule-draft-title">sales.rule.draft</title>
  <desc id="sales-rule-draft-desc">Sales Rule in Draft state. Suggested Mermaid class: decision. Fallback export icon: assets/mermaid-icons/decision.svg.</desc>
  <defs>
    <linearGradient id="sales-rule-draft-bg" x1="0" y1="0" x2="64" y2="64" gradientUnits="userSpaceOnUse">
      <stop stop-color="#FFEDD5" stop-opacity="0.5" />
      <stop offset="1" stop-color="#fff4e6"/>
    </linearGradient>
    <linearGradient id="sales-rule-draft-accent" x1="0" y1="0" x2="64" y2="64" gradientUnits="userSpaceOnUse">
      <stop stop-color="#C2410C"/>
      <stop offset="1" stop-color="#EA580C"/>
    </linearGradient>
    <filter id="sales-rule-draft-shadow" x="2" y="2" width="60" height="60" filterUnits="userSpaceOnUse" color-interpolation-filters="sRGB">
      <feDropShadow dx="0" dy="3" stdDeviation="2.5" flood-color="#0F172A" flood-opacity="0.1"/>
    </filter>
  </defs>
  <g filter="url(#sales-rule-draft-shadow)">
    <!-- Base App-Style Squircle -->
    <rect x="6" y="6" width="52" height="52" rx="16" fill="url(#sales-rule-draft-bg)" stroke="#EA580C" stroke-width="1.5" stroke-opacity="0.3"/>
    
    <!-- Central Glyph (Scaled UP!) -->
    <g transform="translate(-14.4, -14.4) scale(1.45)">
      <path d="M32 20V42" stroke="#C2410C" stroke-width="2.6" stroke-linecap="round" stroke-linejoin="round" fill="none"/><path d="M24 24H40" stroke="#C2410C" stroke-width="2.6" stroke-linecap="round" stroke-linejoin="round" fill="none"/><path d="M24 24L20 30H28L24 24Z" stroke="#C2410C" stroke-width="2.6" stroke-linecap="round" stroke-linejoin="round" fill="none"/><path d="M40 24L36 30H44L40 24Z" stroke="#C2410C" stroke-width="2.6" stroke-linecap="round" stroke-linejoin="round" fill="none"/><path d="M28 40H36" stroke="#C2410C" stroke-width="2.6" stroke-linecap="round" stroke-linejoin="round" fill="none"/>
    </g>

    <!-- State Badge (Bottom Right to not overlap glyph center) -->
    <g transform="translate(50, 50)">
      <circle cx="0" cy="0" r="10" fill="#FFFFFF" stroke="#CBD5E1" stroke-width="1.5"/>
      <path d="M-3.5 0.5L1.5 -4.5L3.5 -2.5L-1.5 2.5L-4.5 3.5L-3.5 0.5Z" stroke="#94A3B8" stroke-width="1.8" fill="none" stroke-linejoin="round"/>
    </g>
  </g>
</svg>
