<?xml version="1.0" encoding="UTF-8"?>
<svg width="64" height="64" viewBox="0 0 64 64" fill="none" xmlns="http://www.w3.org/2000/svg" role="img" aria-labelledby="analytics-ticket-rejected-title analytics-ticket-rejected-desc">
  <title id="analytics-ticket-rejected-title">analytics.ticket.rejected</title>
  <desc id="analytics-ticket-rejected-desc">Analytics Ticket in Rejected state. Suggested Mermaid class: process. Fallback export icon: assets/mermaid-icons/process.svg.</desc>
  <defs>
    <linearGradient id="analytics-ticket-rejected-bg" x1="0" y1="0" x2="64" y2="64" gradientUnits="userSpaceOnUse">
      <stop stop-color="#FFEDD5" stop-opacity="0.5" />
      <stop offset="1" stop-color="#fff4e6"/>
    </linearGradient>
    <linearGradient id="analytics-ticket-rejected-accent" x1="0" y1="0" x2="64" y2="64" gradientUnits="userSpaceOnUse">
      <stop stop-color="#7C2D12"/>
      <stop offset="1" stop-color="#EA580C"/>
    </linearGradient>
    <filter id="analytics-ticket-rejected-shadow" x="2" y="2" width="60" height="60" filterUnits="userSpaceOnUse" color-interpolation-filters="sRGB">
      <feDropShadow dx="0" dy="3" stdDeviation="2.5" flood-color="#0F172A" flood-opacity="0.1"/>
    </filter>
  </defs>
  <g filter="url(#analytics-ticket-rejected-shadow)">
    <!-- Base App-Style Squircle -->
    <rect x="6" y="6" width="52" height="52" rx="16" fill="url(#analytics-ticket-rejected-bg)" stroke="#EA580C" stroke-width="1.5" stroke-opacity="0.3"/>
    
    <!-- Central Glyph (Scaled UP!) -->
    <g transform="translate(-14.4, -14.4) scale(1.45)">
      <path d="M20 24H44V30C41.5 30 39.5 32 39.5 34.5C39.5 37 41.5 39 44 39V44H20V39C22.5 39 24.5 37 24.5 34.5C24.5 32 22.5 30 20 30V24Z" stroke="#7C2D12" stroke-width="2.6" stroke-linecap="round" stroke-linejoin="round" fill="none"/><path d="M32 24V44" stroke="#7C2D12" stroke-width="2.6" stroke-linecap="round" stroke-linejoin="round" fill="none" stroke-dasharray="3 4"/>
    </g>

    <!-- State Badge (Bottom Right to not overlap glyph center) -->
    <g transform="translate(50, 50)">
      <circle cx="0" cy="0" r="10" fill="#FFFFFF" stroke="#FECACA" stroke-width="1.5"/>
      <path d="M-3 -3L3 3M3 -3L-3 3" stroke="#DC2626" stroke-width="2.5" stroke-linecap="round"/>
    </g>
  </g>
</svg>
