<?xml version="1.0" encoding="UTF-8"?>
<svg width="64" height="64" viewBox="0 0 64 64" fill="none" xmlns="http://www.w3.org/2000/svg" role="img" aria-labelledby="support-ticket-rejected-title support-ticket-rejected-desc">
  <title id="support-ticket-rejected-title">support.ticket.rejected</title>
  <desc id="support-ticket-rejected-desc">Support Ticket in Rejected state. Suggested Mermaid class: process. Fallback export icon: assets/mermaid-icons/process.svg.</desc>
  <defs>
    <linearGradient id="support-ticket-rejected-bg" x1="0" y1="0" x2="64" y2="64" gradientUnits="userSpaceOnUse">
      <stop stop-color="#E0F2FE" stop-opacity="0.5" />
      <stop offset="1" stop-color="#ecf7fe"/>
    </linearGradient>
    <linearGradient id="support-ticket-rejected-accent" x1="0" y1="0" x2="64" y2="64" gradientUnits="userSpaceOnUse">
      <stop stop-color="#0369A1"/>
      <stop offset="1" stop-color="#0EA5E9"/>
    </linearGradient>
    <filter id="support-ticket-rejected-shadow" x="2" y="2" width="60" height="60" filterUnits="userSpaceOnUse" color-interpolation-filters="sRGB">
      <feDropShadow dx="0" dy="3" stdDeviation="2.5" flood-color="#0F172A" flood-opacity="0.1"/>
    </filter>
  </defs>
  <g filter="url(#support-ticket-rejected-shadow)">
    <!-- Base App-Style Squircle -->
    <rect x="6" y="6" width="52" height="52" rx="16" fill="url(#support-ticket-rejected-bg)" stroke="#0EA5E9" stroke-width="1.5" stroke-opacity="0.3"/>
    
    <!-- Central Glyph (Scaled UP!) -->
    <g transform="translate(-14.4, -14.4) scale(1.45)">
      <path d="M20 24H44V30C41.5 30 39.5 32 39.5 34.5C39.5 37 41.5 39 44 39V44H20V39C22.5 39 24.5 37 24.5 34.5C24.5 32 22.5 30 20 30V24Z" stroke="#0369A1" stroke-width="2.6" stroke-linecap="round" stroke-linejoin="round" fill="none"/><path d="M32 24V44" stroke="#0369A1" stroke-width="2.6" stroke-linecap="round" stroke-linejoin="round" fill="none" stroke-dasharray="3 4"/>
    </g>

    <!-- State Badge (Bottom Right to not overlap glyph center) -->
    <g transform="translate(50, 50)">
      <circle cx="0" cy="0" r="10" fill="#FFFFFF" stroke="#FECACA" stroke-width="1.5"/>
      <path d="M-3 -3L3 3M3 -3L-3 3" stroke="#DC2626" stroke-width="2.5" stroke-linecap="round"/>
    </g>
  </g>
</svg>
