<?xml version="1.0" encoding="UTF-8"?>
<svg width="64" height="64" viewBox="0 0 64 64" fill="none" xmlns="http://www.w3.org/2000/svg" role="img" aria-labelledby="identity-ticket-draft-title identity-ticket-draft-desc">
  <title id="identity-ticket-draft-title">identity.ticket.draft</title>
  <desc id="identity-ticket-draft-desc">Identity Ticket in Draft state. Suggested Mermaid class: process. Fallback export icon: assets/mermaid-icons/process.svg.</desc>
  <defs>
    <linearGradient id="identity-ticket-draft-bg" x1="0" y1="0" x2="64" y2="64" gradientUnits="userSpaceOnUse">
      <stop stop-color="#E0E7FF" stop-opacity="0.5" />
      <stop offset="1" stop-color="#ecf1ff"/>
    </linearGradient>
    <linearGradient id="identity-ticket-draft-accent" x1="0" y1="0" x2="64" y2="64" gradientUnits="userSpaceOnUse">
      <stop stop-color="#4F46E5"/>
      <stop offset="1" stop-color="#4338CA"/>
    </linearGradient>
    <filter id="identity-ticket-draft-shadow" x="2" y="2" width="60" height="60" filterUnits="userSpaceOnUse" color-interpolation-filters="sRGB">
      <feDropShadow dx="0" dy="3" stdDeviation="2.5" flood-color="#0F172A" flood-opacity="0.1"/>
    </filter>
  </defs>
  <g filter="url(#identity-ticket-draft-shadow)">
    <!-- Base App-Style Squircle -->
    <rect x="6" y="6" width="52" height="52" rx="16" fill="url(#identity-ticket-draft-bg)" stroke="#4338CA" stroke-width="1.5" stroke-opacity="0.3"/>
    
    <!-- Central Glyph (Scaled UP!) -->
    <g transform="translate(-14.4, -14.4) scale(1.45)">
      <path d="M20 24H44V30C41.5 30 39.5 32 39.5 34.5C39.5 37 41.5 39 44 39V44H20V39C22.5 39 24.5 37 24.5 34.5C24.5 32 22.5 30 20 30V24Z" stroke="#4F46E5" stroke-width="2.6" stroke-linecap="round" stroke-linejoin="round" fill="none"/><path d="M32 24V44" stroke="#4F46E5" stroke-width="2.6" stroke-linecap="round" stroke-linejoin="round" fill="none" stroke-dasharray="3 4"/>
    </g>

    <!-- State Badge (Bottom Right to not overlap glyph center) -->
    <g transform="translate(50, 50)">
      <circle cx="0" cy="0" r="10" fill="#FFFFFF" stroke="#CBD5E1" stroke-width="1.5"/>
      <path d="M-3.5 0.5L1.5 -4.5L3.5 -2.5L-1.5 2.5L-4.5 3.5L-3.5 0.5Z" stroke="#94A3B8" stroke-width="1.8" fill="none" stroke-linejoin="round"/>
    </g>
  </g>
</svg>
