<?xml version="1.0" encoding="UTF-8"?>
<svg width="64" height="64" viewBox="0 0 64 64" fill="none" xmlns="http://www.w3.org/2000/svg" role="img" aria-labelledby="finance-approval-submitted-title finance-approval-submitted-desc">
  <title id="finance-approval-submitted-title">finance.approval.submitted</title>
  <desc id="finance-approval-submitted-desc">Finance Approval in Submitted state. Suggested Mermaid class: decision. Fallback export icon: assets/mermaid-icons/decision.svg.</desc>
  <defs>
    <linearGradient id="finance-approval-submitted-bg" x1="0" y1="0" x2="64" y2="64" gradientUnits="userSpaceOnUse">
      <stop stop-color="#DCFCE7" stop-opacity="0.5" />
      <stop offset="1" stop-color="#eafdf1"/>
    </linearGradient>
    <linearGradient id="finance-approval-submitted-accent" x1="0" y1="0" x2="64" y2="64" gradientUnits="userSpaceOnUse">
      <stop stop-color="#0F766E"/>
      <stop offset="1" stop-color="#16A34A"/>
    </linearGradient>
    <filter id="finance-approval-submitted-shadow" x="2" y="2" width="60" height="60" filterUnits="userSpaceOnUse" color-interpolation-filters="sRGB">
      <feDropShadow dx="0" dy="3" stdDeviation="2.5" flood-color="#0F172A" flood-opacity="0.1"/>
    </filter>
  </defs>
  <g filter="url(#finance-approval-submitted-shadow)">
    <!-- Base App-Style Squircle -->
    <rect x="6" y="6" width="52" height="52" rx="16" fill="url(#finance-approval-submitted-bg)" stroke="#16A34A" stroke-width="1.5" stroke-opacity="0.3"/>
    
    <!-- Central Glyph (Scaled UP!) -->
    <g transform="translate(-14.4, -14.4) scale(1.45)">
      <path d="M32 18L42 22V30C42 36 38 40.5 32 44C26 40.5 22 36 22 30V22L32 18Z" stroke="#0F766E" stroke-width="2.6" stroke-linecap="round" stroke-linejoin="round" fill="none"/><path d="M27.5 30L31 33.5L37.5 27" stroke="#0F766E" stroke-width="2.6" stroke-linecap="round" stroke-linejoin="round" fill="none"/>
    </g>

    <!-- State Badge (Bottom Right to not overlap glyph center) -->
    <g transform="translate(50, 50)">
      <circle cx="0" cy="0" r="10" fill="#FFFFFF" stroke="#93C5FD" stroke-width="1.5"/>
      <path d="M-4 0H4M0 -4L4 0L0 4" stroke="#2563EB" stroke-width="2.5" stroke-linecap="round" stroke-linejoin="round"/>
    </g>
  </g>
</svg>
