<?xml version="1.0" encoding="UTF-8"?>
<svg width="64" height="64" viewBox="0 0 64 64" fill="none" xmlns="http://www.w3.org/2000/svg" role="img" aria-labelledby="risk-role-verified-title risk-role-verified-desc">
  <title id="risk-role-verified-title">risk.role.verified</title>
  <desc id="risk-role-verified-desc">Risk Role in Verified state. Suggested Mermaid class: decision. Fallback export icon: assets/mermaid-icons/decision.svg.</desc>
  <defs>
    <linearGradient id="risk-role-verified-bg" x1="0" y1="0" x2="64" y2="64" gradientUnits="userSpaceOnUse">
      <stop stop-color="#FEE2E2" stop-opacity="0.5" />
      <stop offset="1" stop-color="#feeeee"/>
    </linearGradient>
    <linearGradient id="risk-role-verified-accent" x1="0" y1="0" x2="64" y2="64" gradientUnits="userSpaceOnUse">
      <stop stop-color="#B91C1C"/>
      <stop offset="1" stop-color="#DC2626"/>
    </linearGradient>
    <filter id="risk-role-verified-shadow" x="2" y="2" width="60" height="60" filterUnits="userSpaceOnUse" color-interpolation-filters="sRGB">
      <feDropShadow dx="0" dy="3" stdDeviation="2.5" flood-color="#0F172A" flood-opacity="0.1"/>
    </filter>
  </defs>
  <g filter="url(#risk-role-verified-shadow)">
    <!-- Base App-Style Squircle -->
    <rect x="6" y="6" width="52" height="52" rx="16" fill="url(#risk-role-verified-bg)" stroke="#DC2626" stroke-width="1.5" stroke-opacity="0.3"/>
    
    <!-- Central Glyph (Scaled UP!) -->
    <g transform="translate(-14.4, -14.4) scale(1.45)">
      <path d="M32 18L41 22V29C41 35 37 39.5 32 43C27 39.5 23 35 23 29V22L32 18Z" stroke="#B91C1C" stroke-width="2.6" stroke-linecap="round" stroke-linejoin="round" fill="none"/><circle cx="32" cy="28" r="3.5" stroke="#B91C1C" stroke-width="2.6" stroke-linecap="round" stroke-linejoin="round" fill="none"/><path d="M28 35C29.2 33.8 30.5 33.2 32 33.2C33.5 33.2 34.8 33.8 36 35" stroke="#B91C1C" stroke-width="2.6" stroke-linecap="round" stroke-linejoin="round" fill="none"/>
    </g>

    <!-- State Badge (Bottom Right to not overlap glyph center) -->
    <g transform="translate(50, 50)">
      <circle cx="0" cy="0" r="10" fill="#FFFFFF" stroke="#99F6E4" stroke-width="1.5"/>
      <path d="M-3.5 -0.5L-0.5 2.5L4 -2.5" stroke="#0F766E" stroke-width="2.5" stroke-linecap="round" stroke-linejoin="round"/>
    </g>
  </g>
</svg>
