<?xml version="1.0" encoding="UTF-8"?>
<svg width="64" height="64" viewBox="0 0 64 64" fill="none" xmlns="http://www.w3.org/2000/svg" role="img" aria-labelledby="risk-record-rejected-title risk-record-rejected-desc">
  <title id="risk-record-rejected-title">risk.record.rejected</title>
  <desc id="risk-record-rejected-desc">Risk Record in Rejected state. Suggested Mermaid class: external. Fallback export icon: assets/mermaid-icons/data-store.svg.</desc>
  <defs>
    <linearGradient id="risk-record-rejected-bg" x1="0" y1="0" x2="64" y2="64" gradientUnits="userSpaceOnUse">
      <stop stop-color="#FEE2E2" stop-opacity="0.5" />
      <stop offset="1" stop-color="#feeeee"/>
    </linearGradient>
    <linearGradient id="risk-record-rejected-accent" x1="0" y1="0" x2="64" y2="64" gradientUnits="userSpaceOnUse">
      <stop stop-color="#B91C1C"/>
      <stop offset="1" stop-color="#DC2626"/>
    </linearGradient>
    <filter id="risk-record-rejected-shadow" x="2" y="2" width="60" height="60" filterUnits="userSpaceOnUse" color-interpolation-filters="sRGB">
      <feDropShadow dx="0" dy="3" stdDeviation="2.5" flood-color="#0F172A" flood-opacity="0.1"/>
    </filter>
  </defs>
  <g filter="url(#risk-record-rejected-shadow)">
    <!-- Base App-Style Squircle -->
    <rect x="6" y="6" width="52" height="52" rx="16" fill="url(#risk-record-rejected-bg)" stroke="#DC2626" stroke-width="1.5" stroke-opacity="0.3"/>
    
    <!-- Central Glyph (Scaled UP!) -->
    <g transform="translate(-14.4, -14.4) scale(1.45)">
      <ellipse cx="32" cy="22" rx="11" ry="4.5" stroke="#B91C1C" stroke-width="2.6" stroke-linecap="round" stroke-linejoin="round" fill="none"/><path d="M21 22V38C21 40.5 25.9 43 32 43C38.1 43 43 40.5 43 38V22" stroke="#B91C1C" stroke-width="2.6" stroke-linecap="round" stroke-linejoin="round" fill="none"/><path d="M21 30C21 32.5 25.9 35 32 35C38.1 35 43 32.5 43 30" stroke="#B91C1C" stroke-width="2.6" stroke-linecap="round" stroke-linejoin="round" fill="none"/>
    </g>

    <!-- State Badge (Bottom Right to not overlap glyph center) -->
    <g transform="translate(50, 50)">
      <circle cx="0" cy="0" r="10" fill="#FFFFFF" stroke="#FECACA" stroke-width="1.5"/>
      <path d="M-3 -3L3 3M3 -3L-3 3" stroke="#DC2626" stroke-width="2.5" stroke-linecap="round"/>
    </g>
  </g>
</svg>
