<?xml version="1.0" encoding="UTF-8"?>
<svg width="64" height="64" viewBox="0 0 64 64" fill="none" xmlns="http://www.w3.org/2000/svg" role="img" aria-labelledby="risk-order-draft-title risk-order-draft-desc">
  <title id="risk-order-draft-title">risk.order.draft</title>
  <desc id="risk-order-draft-desc">Risk Order in Draft state. Suggested Mermaid class: process. Fallback export icon: assets/mermaid-icons/process.svg.</desc>
  <defs>
    <linearGradient id="risk-order-draft-bg" x1="0" y1="0" x2="64" y2="64" gradientUnits="userSpaceOnUse">
      <stop stop-color="#FEE2E2" stop-opacity="0.5" />
      <stop offset="1" stop-color="#feeeee"/>
    </linearGradient>
    <linearGradient id="risk-order-draft-accent" x1="0" y1="0" x2="64" y2="64" gradientUnits="userSpaceOnUse">
      <stop stop-color="#B91C1C"/>
      <stop offset="1" stop-color="#DC2626"/>
    </linearGradient>
    <filter id="risk-order-draft-shadow" x="2" y="2" width="60" height="60" filterUnits="userSpaceOnUse" color-interpolation-filters="sRGB">
      <feDropShadow dx="0" dy="3" stdDeviation="2.5" flood-color="#0F172A" flood-opacity="0.1"/>
    </filter>
  </defs>
  <g filter="url(#risk-order-draft-shadow)">
    <!-- Base App-Style Squircle -->
    <rect x="6" y="6" width="52" height="52" rx="16" fill="url(#risk-order-draft-bg)" stroke="#DC2626" stroke-width="1.5" stroke-opacity="0.3"/>
    
    <!-- Central Glyph (Scaled UP!) -->
    <g transform="translate(-14.4, -14.4) scale(1.45)">
      <path d="M22 24H42L40 42H24L22 24Z" stroke="#B91C1C" stroke-width="2.6" stroke-linecap="round" stroke-linejoin="round" fill="none"/><path d="M27 24V22C27 19.8 29.2 18 32 18C34.8 18 37 19.8 37 22V24" stroke="#B91C1C" stroke-width="2.6" stroke-linecap="round" stroke-linejoin="round" fill="none"/>
    </g>

    <!-- State Badge (Bottom Right to not overlap glyph center) -->
    <g transform="translate(50, 50)">
      <circle cx="0" cy="0" r="10" fill="#FFFFFF" stroke="#CBD5E1" stroke-width="1.5"/>
      <path d="M-3.5 0.5L1.5 -4.5L3.5 -2.5L-1.5 2.5L-4.5 3.5L-3.5 0.5Z" stroke="#94A3B8" stroke-width="1.8" fill="none" stroke-linejoin="round"/>
    </g>
  </g>
</svg>
